HIERARCHY
ROOT Hips
{
    OFFSET 0.000000 0.000000 0.000000
    CHANNELS 6 Xposition Yposition Zposition Zrotation Xrotation Yrotation
    JOINT Spine
    {
        OFFSET 0.000002 7.164412 0.000002
        CHANNELS 3 Zrotation Xrotation Yrotation
        JOINT Spine1
        {
            OFFSET -0.000001 20.126801 -0.000002
            CHANNELS 3 Zrotation Xrotation Yrotation
            JOINT Neck
            {
                OFFSET 0.000000 21.094069 0.000000
                CHANNELS 3 Zrotation Xrotation Yrotation
                JOINT Head
                {
                    OFFSET -0.000001 12.838277 1.776080
                    CHANNELS 3 Zrotation Xrotation Yrotation
                    End Site
                    {
                        OFFSET 0.000000 17.760757 0.000000
                    }
                }
            }
            JOINT LeftShoulder
            {
                OFFSET 3.550527 15.465700 -0.908803
                CHANNELS 3 Zrotation Xrotation Yrotation
                JOINT LeftArm
                {
                    OFFSET 12.513296 -0.000006 -0.000002
                    CHANNELS 3 Zrotation Xrotation Yrotation
                    JOINT LeftForeArm
                    {
                        OFFSET 24.225996 -0.000003 0.000001
                        CHANNELS 3 Zrotation Xrotation Yrotation
                        JOINT LeftHand
                        {
                            OFFSET 20.711399 -0.000005 -0.000004
                            CHANNELS 3 Zrotation Xrotation Yrotation
                            JOINT LeftHandThumb1
                            {
                                OFFSET 2.121969 -2.411331 3.375859
                                CHANNELS 3 Zrotation Xrotation Yrotation
                                JOINT LeftHandThumb2
                                {
                                    OFFSET 2.803208 0.000003 0.000001
                                    CHANNELS 3 Zrotation Xrotation Yrotation
                                    JOINT LeftHandThumb3
                                    {
                                        OFFSET 2.395929 0.000004 -0.000003
                                        CHANNELS 3 Zrotation Xrotation Yrotation
                                        End Site
                                        {
                                            OFFSET 2.127676 0.000000 0.000000
                                        }
                                    }
                                }
                            }
                            JOINT LeftHandIndex1
                            {
                                OFFSET 8.680775 0.000005 3.375860
                                CHANNELS 3 Zrotation Xrotation Yrotation
                                JOINT LeftHandIndex2
                                {
                                    OFFSET 4.218178 -0.000000 -0.000000
                                    CHANNELS 3 Zrotation Xrotation Yrotation
                                    JOINT LeftHandIndex3
                                    {
                                        OFFSET 2.109086 -0.000004 0.000002
                                        CHANNELS 3 Zrotation Xrotation Yrotation
                                        End Site
                                        {
                                            OFFSET 1.872952 0.000000 0.000000
                                        }
                                    }
                                }
                            }
                            JOINT LeftHandMiddle1
                            {
                                OFFSET 8.680778 -0.000002 1.118860
                                CHANNELS 3 Zrotation Xrotation Yrotation
                                JOINT LeftHandMiddle2
                                {
                                    OFFSET 4.640003 -0.000004 -0.000001
                                    CHANNELS 3 Zrotation Xrotation Yrotation
                                    JOINT LeftHandMiddle3
                                    {
                                        OFFSET 2.530911 0.000002 -0.000001
                                        CHANNELS 3 Zrotation Xrotation Yrotation
                                        End Site
                                        {
                                            OFFSET 2.247544 0.000000 0.000000
                                        }
                                    }
                                }
                            }
                            JOINT LeftHandRing1
                            {
                                OFFSET 8.198517 0.000004 -1.118860
                                CHANNELS 3 Zrotation Xrotation Yrotation
                                JOINT LeftHandRing2
                                {
                                    OFFSET 4.218183 -0.000002 -0.000002
                                    CHANNELS 3 Zrotation Xrotation Yrotation
                                    JOINT LeftHandRing3
                                    {
                                        OFFSET 2.109094 0.000005 -0.000000
                                        CHANNELS 3 Zrotation Xrotation Yrotation
                                        End Site
                                        {
                                            OFFSET 1.872952 0.000000 0.000000
                                        }
                                    }
                                }
                            }
                            JOINT LeftHandPinky1
                            {
                                OFFSET 7.716254 0.000002 -3.375863
                                CHANNELS 3 Zrotation Xrotation Yrotation
                                JOINT LeftHandPinky2
                                {
                                    OFFSET 3.374536 0.000002 0.000001
                                    CHANNELS 3 Zrotation Xrotation Yrotation
                                    JOINT LeftHandPinky3
                                    {
                                        OFFSET 1.687274 -0.000002 -0.000004
                                        CHANNELS 3 Zrotation Xrotation Yrotation
                                        End Site
                                        {
                                            OFFSET 1.498360 0.000000 0.000000
                                        }
                                    }
                                }
                            }
                        }
                    }
                }
            }
            JOINT RightShoulder
            {
                OFFSET -3.550529 15.465699 -0.908801
                CHANNELS 3 Zrotation Xrotation Yrotation
                JOINT RightArm
                {
                    OFFSET -12.513299 -0.000001 -0.000000
                    CHANNELS 3 Zrotation Xrotation Yrotation
                    JOINT RightForeArm
                    {
                        OFFSET -24.226000 -0.000003 -0.000001
                        CHANNELS 3 Zrotation Xrotation Yrotation
                        JOINT RightHand
                        {
                            OFFSET -20.711397 -0.000003 -0.000002
                            CHANNELS 3 Zrotation Xrotation Yrotation
                            JOINT RightHandThumb1
                            {
                                OFFSET -2.121970 -2.411331 3.375859
                                CHANNELS 3 Zrotation Xrotation Yrotation
                                JOINT RightHandThumb2
                                {
                                    OFFSET -2.803209 -0.000004 0.000004
                                    CHANNELS 3 Zrotation Xrotation Yrotation
                                    JOINT RightHandThumb3
                                    {
                                        OFFSET -2.395928 0.000004 -0.000003
                                        CHANNELS 3 Zrotation Xrotation Yrotation
                                        End Site
                                        {
                                            OFFSET -2.127676 0.000000 0.000000
                                        }
                                    }
                                }
                            }
                            JOINT RightHandIndex1
                            {
                                OFFSET -8.680779 0.000001 3.375859
                                CHANNELS 3 Zrotation Xrotation Yrotation
                                JOINT RightHandIndex2
                                {
                                    OFFSET -4.218179 0.000003 -0.000001
                                    CHANNELS 3 Zrotation Xrotation Yrotation
                                    JOINT RightHandIndex3
                                    {
                                        OFFSET -2.109090 -0.000002 0.000000
                                        CHANNELS 3 Zrotation Xrotation Yrotation
                                        End Site
                                        {
                                            OFFSET -1.872952 0.000000 0.000000
                                        }
                                    }
                                }
                            }
                            JOINT RightHandMiddle1
                            {
                                OFFSET -8.680779 -0.000002 1.118859
                                CHANNELS 3 Zrotation Xrotation Yrotation
                                JOINT RightHandMiddle2
                                {
                                    OFFSET -4.639998 0.000003 -0.000001
                                    CHANNELS 3 Zrotation Xrotation Yrotation
                                    JOINT RightHandMiddle3
                                    {
                                        OFFSET -2.530910 -0.000000 -0.000000
                                        CHANNELS 3 Zrotation Xrotation Yrotation
                                        End Site
                                        {
                                            OFFSET -2.247544 0.000000 0.000000
                                        }
                                    }
                                }
                            }
                            JOINT RightHandRing1
                            {
                                OFFSET -8.198519 -0.000004 -1.118859
                                CHANNELS 3 Zrotation Xrotation Yrotation
                                JOINT RightHandRing2
                                {
                                    OFFSET -4.218180 -0.000005 0.000000
                                    CHANNELS 3 Zrotation Xrotation Yrotation
                                    JOINT RightHandRing3
                                    {
                                        OFFSET -2.109090 0.000002 0.000002
                                        CHANNELS 3 Zrotation Xrotation Yrotation
                                        End Site
                                        {
                                            OFFSET -1.872952 0.000000 0.000000
                                        }
                                    }
                                }
                            }
                            JOINT RightHandPinky1
                            {
                                OFFSET -7.716249 0.000004 -3.375858
                                CHANNELS 3 Zrotation Xrotation Yrotation
                                JOINT RightHandPinky2
                                {
                                    OFFSET -3.374539 0.000003 -0.000000
                                    CHANNELS 3 Zrotation Xrotation Yrotation
                                    JOINT RightHandPinky3
                                    {
                                        OFFSET -1.687270 -0.000004 -0.000001
                                        CHANNELS 3 Zrotation Xrotation Yrotation
                                        End Site
                                        {
                                            OFFSET -1.498360 0.000000 0.000000
                                        }
                                    }
                                }
                            }
                        }
                    }
                }
            }
        }
    }
    JOINT LeftUpLeg
    {
        OFFSET 8.880377 0.000003 0.000001
        CHANNELS 3 Zrotation Xrotation Yrotation
        JOINT LeftLeg
        {
            OFFSET -0.000000 -40.387413 0.000001
            CHANNELS 3 Zrotation Xrotation Yrotation
            JOINT LeftFoot
            {
                OFFSET -0.000000 -36.911304 0.000000
                CHANNELS 3 Zrotation Xrotation Yrotation
                JOINT LeftToeBase
                {
                    OFFSET 0.000003 -5.772240 13.320597
                    CHANNELS 3 Zrotation Xrotation Yrotation
                    End Site
                    {
                        OFFSET 0.000000 0.000000 3.552151
                    }
                }
            }
        }
    }
    JOINT RightUpLeg
    {
        OFFSET -8.880380 -0.000003 -0.000001
        CHANNELS 3 Zrotation Xrotation Yrotation
        JOINT RightLeg
        {
            OFFSET 0.000001 -40.387405 0.000000
            CHANNELS 3 Zrotation Xrotation Yrotation
            JOINT RightFoot
            {
                OFFSET -0.000001 -36.911304 -0.000001
                CHANNELS 3 Zrotation Xrotation Yrotation
                JOINT RightToeBase
                {
                    OFFSET 0.000000 -5.772241 13.320600
                    CHANNELS 3 Zrotation Xrotation Yrotation
                    End Site
                    {
                        OFFSET 0.000000 0.000000 3.552151
                    }
                }
            }
        }
    }
}
MOTION
Frames: 5
Frame Time: 0.013889
72.258522    82.753754    5.231133    -9.452046    -1.011611    3.169889    1.006074    -16.004848    3.644365    -3.151660    12.835004    4.118560    1.751808    0.587627    -8.038533    -2.525978    4.797885    -7.790146    2.478361    5.627714    -5.805979    -16.798674    53.317276    -32.177383    -1.580621    -0.209019    -82.468758    -36.075470    22.099455    20.899164    2.365751    60.316998    -43.092274    -25.074869    -5.607558    22.669786    -0.000000    0.000000    -0.000000    -43.171249    13.331319    8.528195    -41.739475    -0.000002    0.000006    -41.739479    -0.000001    0.000003    -23.383310    8.271511    1.720764    -23.125853    -0.000008    -0.000003    -23.125853    -0.000001    0.000003    -13.984578    -8.737432    -5.027483    -13.819049    -0.000004    0.000005    -13.819040    -0.000006    -0.000004    -4.743406    -17.942270    -7.186163    -4.512230    0.000004    -0.000003    -4.512233    -0.000000    0.000002    -18.605715    -12.138533    0.454386    20.058222    -35.215008    42.470123    -16.376730    18.936287    42.163254    -0.201543    0.073188    -35.695274    -47.740875    23.886549    41.467297    11.809808    0.042287    -23.317436    -0.000000    0.000000    -0.000000    28.383512    15.953054    2.706520    27.197773    -0.000002    -0.000002    27.197769    -0.000000    0.000008    28.681334    7.910659    1.271092    28.383486    -0.000001    0.000004    28.383480    -0.000006    -0.000012    29.278131    -7.865727    -2.339862    28.976334    -0.000001    -0.000012    28.976337    0.000002    0.000012    30.818863    -15.591095    -4.345828    29.569197    -0.000001    -0.000004    29.569201    0.000003    0.000012    10.072404    -2.485255    8.908349    0.000000    27.560287    0.000001    2.786492    -16.001694    -2.685120    0.000000    -1.305865    0.000001    -9.570394    -2.690720    -11.262341    -0.000001    17.080173    0.000000    -1.560567    0.849503    -14.148054    -0.000002    0.047842    -0.000003    
71.874802    82.782478    5.354339    -9.299118    -1.038624    3.066054    1.055754    -15.992668    3.826681    -3.169877    12.829686    4.293519    1.326168    0.541729    -7.916533    -2.726560    4.763435    -7.661906    2.505043    5.616182    -5.995622    -16.821358    53.261520    -31.941179    -1.707492    -0.225136    -82.491066    -35.877750    22.098255    20.823647    2.336469    60.416077    -43.177670    -25.148464    -5.638143    22.662571    -0.000000    0.000000    -0.000000    -43.156536    13.334414    8.497565    -41.724838    0.000002    0.000001    -41.724834    -0.000002    -0.000001    -23.469639    8.266188    1.719561    -23.211449    0.000000    -0.000002    -23.211443    -0.000000    -0.000007    -14.121787    -8.732268    -5.025135    -13.954758    -0.000010    -0.000005    -13.954748    0.000013    0.000008    -4.938668    -17.937416    -7.199950    -4.698068    0.000000    -0.000005    -4.698058    0.000004    -0.000003    -18.917746    -12.448757    0.500451    20.116461    -35.656036    43.435905    -17.279541    19.146700    43.483902    -1.319923    -0.113078    -35.559639    -47.808559    23.840517    41.477337    11.697568    0.090660    -23.317299    -0.000000    0.000000    -0.000000    28.642952    15.915847    2.772274    27.449993    0.000004    0.000004    27.449995    0.000000    -0.000002    29.044291    7.883440    1.289723    28.744028    -0.000001    0.000000    28.744028    0.000001    0.000003    29.695515    -7.833791    -2.286588    29.391045    0.000000    0.000010    29.391043    0.000000    -0.000004    31.299332    -15.516339    -4.224447    30.038059    0.000004    -0.000000    30.038065    0.000001    0.000007    10.229222    -2.381555    9.081074    -0.000001    27.585978    0.000002    2.716426    -15.712004    -2.781478    -0.000000    -1.481985    0.000001    -10.321141    -2.165310    -10.997068    0.000002    16.083792    0.000000    -1.038178    2.498383    -13.655119    0.000003    0.468640    0.000002    
71.578964    82.817230    5.443182    -9.162206    -1.061083    2.968338    1.092793    -15.997459    3.959388    -3.179473    12.844764    4.420548    0.939430    0.582252    -7.908854    -2.892621    4.762705    -7.645836    2.481524    5.606580    -6.149908    -16.794819    53.223183    -31.797888    -1.850132    -0.245351    -82.448616    -35.757839    22.049891    20.765148    2.316380    60.488312    -43.241447    -25.205433    -5.661811    22.656967    -0.000000    0.000000    -0.000000    -43.157009    13.334318    8.489023    -41.725300    0.000002    0.000001    -41.725300    -0.000001    -0.000004    -23.519831    8.263083    1.722447    -23.261190    -0.000002    0.000001    -23.261200    0.000000    0.000000    -14.196999    -8.729433    -5.024937    -14.029144    0.000007    -0.000001    -14.029148    -0.000005    -0.000014    -5.042727    -17.934763    -7.208775    -4.797094    0.000000    -0.000003    -4.797091    0.000003    0.000004    -19.082037    -12.684855    0.552021    20.269587    -35.999226    44.258999    -18.061682    19.310045    44.601391    -2.397837    -0.302255    -35.787071    -47.826767    23.781452    41.572781    11.612761    0.127211    -23.317141    -0.000000    0.000000    -0.000000    28.862358    15.884131    2.780610    27.663372    0.000002    0.000003    27.663370    -0.000001    0.000000    29.294392    7.864498    1.289665    28.992491    -0.000000    0.000006    28.992487    0.000000    0.000003    29.963200    -7.813096    -2.225398    29.657043    -0.000001    0.000004    29.657043    -0.000000    -0.000003    31.589710    -15.470636    -4.097369    30.321598    0.000003    -0.000000    30.321600    0.000001    0.000000    10.343723    -2.300944    9.248616    -0.000001    27.614567    0.000003    2.607924    -15.442257    -2.919421    0.000000    -1.630081    0.000001    -10.882925    -1.794900    -10.830852    -0.000005    15.432316    -0.000001    -0.661121    3.739549    -13.200430    -0.000000    0.764540    -0.000000    
71.264725    82.858673    5.525073    -9.013391    -1.062180    2.894174    1.129557    -15.981685    4.096097    -3.210225    12.850782    4.556115    0.542326    0.546074    -7.887683    -3.043222    4.705480    -7.621994    2.430788    5.578030    -6.284577    -16.746151    53.169636    -31.686792    -1.949795    -0.260899    -82.381500    -35.759922    21.911499    20.734478    2.271267    60.561329    -43.269253    -25.268293    -5.687921    22.650749    -0.000000    0.000000    -0.000000    -43.205856    13.324039    8.515791    -41.773949    -0.000005    0.000002    -41.773945    -0.000005    0.000002    -23.560104    8.260584    1.735991    -23.301126    0.000005    0.000001    -23.301132    -0.000002    -0.000007    -14.232965    -8.728061    -5.020521    -14.064735    -0.000006    -0.000004    -14.064732    0.000001    -0.000007    -5.075544    -17.933905    -7.199126    -4.828335    0.000003    0.000000    -4.828335    0.000000    0.000000    -19.268972    -12.888481    0.610760    20.352348    -36.290901    45.069012    -19.050640    19.666842    45.736561    -3.585361    -0.296167    -36.126179    -47.791821    23.701931    41.772438    11.532953    0.161609    -23.316948    -0.000000    0.000000    -0.000000    29.130341    15.845071    2.742148    27.924101    -0.000004    -0.000003    27.924093    -0.000005    -0.000003    29.510023    7.848040    1.277592    29.206730    0.000002    0.000006    29.206730    -0.000007    -0.000009    30.155396    -7.798141    -2.161882    29.848043    -0.000003    -0.000007    29.848047    -0.000002    0.000007    31.761456    -15.443413    -3.976776    30.489349    -0.000004    -0.000003    30.489365    0.000001    -0.000004    10.447580    -2.209927    9.424106    -0.000000    27.526545    0.000001    2.488788    -15.124848    -3.056926    0.000001    -1.810238    0.000004    -11.413170    -1.435229    -10.690541    -0.000002    14.846396    -0.000000    -0.375464    4.919159    -12.763946    0.000003    1.018175    0.000001    
70.824173    82.926529    5.641634    -8.801970    -1.070927    2.765488    1.177769    -15.966278    4.274331    -3.235563    12.842819    4.728840    -0.027986    0.514038    -7.848912    -3.255206    4.644263    -7.577395    2.353523    5.562243    -6.485270    -16.746281    53.077045    -31.506754    -2.025585    -0.277275    -82.208862    -35.827785    21.731642    20.739401    2.270293    60.627068    -43.352169    -25.329485    -5.713331    22.644667    -0.000000    0.000000    -0.000000    -43.361526    13.291183    8.533147    -41.928940    0.000003    0.000009    -41.928944    -0.000000    -0.000000    -23.624500    8.256591    1.735998    -23.364990    -0.000015    0.000004    -23.364996    0.000002    0.000007    -14.251458    -8.727353    -5.000222    -14.083020    -0.000000    0.000003    -14.083012    -0.000019    -0.000009    -5.046869    -17.934650    -7.144089    -4.801049    -0.000003    -0.000000    -4.801042    0.000007    0.000007    -19.513502    -13.180314    0.709496    20.523684    -36.627953    46.265713    -20.347319    20.054825    47.240955    -4.783825    -0.369386    -36.531109    -47.803059    23.549242    42.058659    11.399877    0.218968    -23.316504    -0.000000    0.000000    -0.000000    29.554165    15.782603    2.651389    28.336636    -0.000002    0.000005    28.336630    -0.000001    -0.000006    29.771675    7.827927    1.254281    29.466721    -0.000002    0.000001    29.466711    -0.000001    0.000001    30.340258    -7.783655    -2.097593    30.031757    0.000000    -0.000010    30.031757    0.000003    0.000000    31.871429    -15.425909    -3.869052    30.596796    0.000002    0.000004    30.596800    -0.000004    0.000002    10.573283    -2.056984    9.537853    -0.000000    27.394951    -0.000000    2.272618    -14.651318    -3.228476    0.000000    -2.043597    0.000001    -12.092386    -1.034263    -10.582434    -0.000004    14.275227    -0.000001    -0.098891    6.490170    -12.226103    -0.000001    1.315941    -0.000003    
